<svg width="87" height="45" viewBox="0 0 87 45" fill="none" xmlns="http://www.w3.org/2000/svg">
<rect x="0.350006" y="0.5" width="86.02" height="44" rx="20" fill="white" fill-opacity="0.08"/>
<path d="M33.0587 16.928V28H31.6027V19.744L27.9227 28H26.8987L23.2027 19.728V28H21.7467V16.928H23.3147L27.4107 26.08L31.5067 16.928H33.0587ZM43.304 19.232V28H41.848V26.704C41.5706 27.152 41.1813 27.504 40.68 27.76C40.1893 28.0053 39.6453 28.128 39.048 28.128C38.3653 28.128 37.752 27.9893 37.208 27.712C36.664 27.424 36.232 26.9973 35.912 26.432C35.6026 25.8667 35.448 25.1787 35.448 24.368V19.232H36.888V24.176C36.888 25.04 37.1066 25.7067 37.544 26.176C37.9813 26.6347 38.5786 26.864 39.336 26.864C40.1146 26.864 40.728 26.624 41.176 26.144C41.624 25.664 41.848 24.9653 41.848 24.048V19.232H43.304ZM48.8664 28.144C48.1943 28.144 47.5917 28.032 47.0583 27.808C46.525 27.5733 46.1037 27.2533 45.7943 26.848C45.485 26.432 45.3143 25.9573 45.2823 25.424H46.7863C46.829 25.8613 47.0317 26.2187 47.3943 26.496C47.7677 26.7733 48.253 26.912 48.8503 26.912C49.405 26.912 49.8424 26.7893 50.1624 26.544C50.4824 26.2987 50.6424 25.9893 50.6424 25.616C50.6424 25.232 50.4717 24.9493 50.1304 24.768C49.789 24.576 49.261 24.3893 48.5464 24.208C47.8957 24.0373 47.3623 23.8667 46.9463 23.696C46.541 23.5147 46.189 23.2533 45.8903 22.912C45.6023 22.56 45.4583 22.1013 45.4583 21.536C45.4583 21.088 45.5917 20.6773 45.8583 20.304C46.125 19.9307 46.5037 19.6373 46.9943 19.424C47.485 19.2 48.045 19.088 48.6743 19.088C49.645 19.088 50.429 19.3333 51.0264 19.824C51.6237 20.3147 51.9437 20.9867 51.9864 21.84H50.5304C50.4983 21.3813 50.3117 21.0133 49.9703 20.736C49.6397 20.4587 49.1917 20.32 48.6263 20.32C48.1037 20.32 47.6877 20.432 47.3783 20.656C47.069 20.88 46.9143 21.1733 46.9143 21.536C46.9143 21.824 47.005 22.064 47.1863 22.256C47.3783 22.4373 47.613 22.5867 47.8903 22.704C48.1783 22.8107 48.573 22.9333 49.0743 23.072C49.7037 23.2427 50.2157 23.4133 50.6104 23.584C51.005 23.744 51.341 23.9893 51.6184 24.32C51.9064 24.6507 52.0557 25.0827 52.0663 25.616C52.0663 26.096 51.933 26.528 51.6663 26.912C51.3997 27.296 51.021 27.6 50.5304 27.824C50.0504 28.0373 49.4957 28.144 48.8664 28.144ZM54.8737 17.808C54.5964 17.808 54.3617 17.712 54.1697 17.52C53.9777 17.328 53.8817 17.0933 53.8817 16.816C53.8817 16.5387 53.9777 16.304 54.1697 16.112C54.3617 15.92 54.5964 15.824 54.8737 15.824C55.1404 15.824 55.3644 15.92 55.5457 16.112C55.7377 16.304 55.8337 16.5387 55.8337 16.816C55.8337 17.0933 55.7377 17.328 55.5457 17.52C55.3644 17.712 55.1404 17.808 54.8737 17.808ZM55.5777 19.232V28H54.1217V19.232H55.5777ZM57.5152 23.6C57.5152 22.6933 57.6966 21.904 58.0592 21.232C58.4219 20.5493 58.9232 20.0213 59.5632 19.648C60.2139 19.2747 60.9552 19.088 61.7872 19.088C62.8646 19.088 63.7499 19.3493 64.4432 19.872C65.1472 20.3947 65.6112 21.12 65.8352 22.048H64.2672C64.1179 21.5147 63.8246 21.0933 63.3872 20.784C62.9606 20.4747 62.4272 20.32 61.7872 20.32C60.9552 20.32 60.2832 20.608 59.7712 21.184C59.2592 21.7493 59.0032 22.5547 59.0032 23.6C59.0032 24.656 59.2592 25.472 59.7712 26.048C60.2832 26.624 60.9552 26.912 61.7872 26.912C62.4272 26.912 62.9606 26.7627 63.3872 26.464C63.8139 26.1653 64.1072 25.7387 64.2672 25.184H65.8352C65.6006 26.08 65.1312 26.8 64.4272 27.344C63.7232 27.8773 62.8432 28.144 61.7872 28.144C60.9552 28.144 60.2139 27.9573 59.5632 27.584C58.9232 27.2107 58.4219 26.6827 58.0592 26C57.6966 25.3173 57.5152 24.5173 57.5152 23.6Z" fill="white"/>
</svg>
